<svg xmlns="http://www.w3.org/2000/svg" width="1800" height="1100" viewBox="0 0 1800 1100" role="img" aria-label="차트 공부 로드맵을 상징하는 대시보드">
  <rect width="1800" height="1100" fill="#213838"/>
  <path d="M0 830 C280 730 420 930 700 790 C980 650 1180 720 1800 520 L1800 1100 L0 1100 Z" fill="#2f716b" opacity=".55"/>
  <path d="M0 670 C270 610 360 710 570 630 C850 524 1000 360 1260 410 C1510 458 1620 350 1800 285" fill="none" stroke="#d19a3c" stroke-width="10" stroke-linecap="round"/>
  <g opacity=".28" stroke="#ffffff" stroke-width="2">
    <path d="M140 160 H1660"/><path d="M140 320 H1660"/><path d="M140 480 H1660"/><path d="M140 640 H1660"/><path d="M140 800 H1660"/>
    <path d="M260 110 V900"/><path d="M500 110 V900"/><path d="M740 110 V900"/><path d="M980 110 V900"/><path d="M1220 110 V900"/><path d="M1460 110 V900"/>
  </g>
  <g fill="#f7f4ee" opacity=".88">
    <rect x="310" y="430" width="28" height="155" rx="8"/><rect x="300" y="390" width="48" height="270" rx="12" fill="none" stroke="#f7f4ee" stroke-width="8"/>
    <rect x="540" y="330" width="28" height="220" rx="8"/><rect x="530" y="290" width="48" height="320" rx="12" fill="none" stroke="#f7f4ee" stroke-width="8"/>
    <rect x="770" y="510" width="28" height="170" rx="8"/><rect x="760" y="470" width="48" height="270" rx="12" fill="none" stroke="#f7f4ee" stroke-width="8"/>
    <rect x="1000" y="270" width="28" height="220" rx="8"/><rect x="990" y="230" width="48" height="315" rx="12" fill="none" stroke="#f7f4ee" stroke-width="8"/>
    <rect x="1230" y="360" width="28" height="190" rx="8"/><rect x="1220" y="320" width="48" height="290" rx="12" fill="none" stroke="#f7f4ee" stroke-width="8"/>
  </g>
</svg>
