<svg xmlns="http://www.w3.org/2000/svg" width="960" height="540" viewBox="0 0 960 540" role="img" aria-labelledby="title desc">
<title id="title">거래대금 급증 후 가격 정체 패턴 해석 교육 이미지</title>
<desc id="desc">거래량·수급 해석 주제를 한국어 차트 도식으로 설명하는 교육 이미지</desc>
<style>
.bg{fill:#f6f4ed}.panel{fill:#fff;stroke:#d8ded6;stroke-width:2}.title{font:800 31px system-ui,-apple-system,BlinkMacSystemFont,"Segoe UI",sans-serif;fill:#10201f}.sub{font:800 18px system-ui,-apple-system,BlinkMacSystemFont,"Segoe UI",sans-serif;fill:#0f766e}.label{font:800 18px system-ui,-apple-system,BlinkMacSystemFont,"Segoe UI",sans-serif;fill:#10201f}.note{font:700 15px system-ui,-apple-system,BlinkMacSystemFont,"Segoe UI",sans-serif;fill:#647067}.line{fill:none;stroke:#0f766e;stroke-width:7;stroke-linecap:round;stroke-linejoin:round}.down{fill:none;stroke:#b45309;stroke-width:7;stroke-linecap:round;stroke-linejoin:round}.thin{fill:none;stroke:#94a3b8;stroke-width:4;stroke-linecap:round}.dash{stroke:#94a3b8;stroke-width:3;stroke-dasharray:10 10}.zone{fill:#e8f4ef;stroke:#0f766e;stroke-width:2;opacity:.92}.risk{fill:#fff3df;stroke:#b45309;stroke-width:2}.bar{fill:#0f766e;opacity:.92}.warn{fill:#b45309;opacity:.92}
</style><rect class="bg" width="960" height="540" rx="30"/><rect class="panel" x="42" y="42" width="876" height="456" rx="24"/><text x="72" y="78" class="sub">거래량·수급 해석</text><text x="72" y="116" class="title">거래대금 급증 후 가격 정체 패턴 해석</text><g opacity=".52"><path d="M120 190H850M120 285H850M120 380H850M210 130V430M370 130V430M530 130V430M690 130V430" stroke="#e7e3d8" stroke-width="1.4"/></g><path class="line" d="M120 340L245 285L370 310L500 210L625 255L760 165L850 220"/><g><rect class="bar" x="160" y="400" width="30" height="48" rx="5"/><rect class="bar" x="255" y="372" width="30" height="76" rx="5"/><rect class="bar" x="455" y="330" width="30" height="118" rx="5"/><rect class="bar" x="625" y="386" width="30" height="62" rx="5"/><rect class="bar" x="760" y="344" width="30" height="104" rx="5"/></g><path class="dash" d="M500 210H850"/><text class="label" x="520" y="198">가격은 정체</text><text class="label" x="442" y="326">거래량 급증</text><text class="note" x="130" y="474">거래량은 많고 적음보다 가격 위치와 함께 해석</text></svg>
