<svg xmlns="http://www.w3.org/2000/svg" width="960" height="540" viewBox="0 0 960 540" role="img" aria-labelledby="title desc">
<title id="title">Distribution Candle: 분산 캔들 해석과 고점권 위험 차트 학습 이미지</title>
<desc id="desc">거래량·수급 해석 주제를 실제 차트 흐름과 핵심 기준으로 설명하는 한국어 교육 이미지</desc>
<style>
.bg{fill:#f6f4ed}.panel{fill:#fff;stroke:#d8ded6;stroke-width:2}.title{font:800 34px system-ui,-apple-system,BlinkMacSystemFont,"Segoe UI",sans-serif;fill:#10201f}.sub{font:800 22px system-ui,-apple-system,BlinkMacSystemFont,"Segoe UI",sans-serif;fill:#0f766e}.label{font:800 20px system-ui,-apple-system,BlinkMacSystemFont,"Segoe UI",sans-serif;fill:#10201f}.note{font:700 17px system-ui,-apple-system,BlinkMacSystemFont,"Segoe UI",sans-serif;fill:#647067}.line{fill:none;stroke:#0f766e;stroke-width:7;stroke-linecap:round;stroke-linejoin:round}.down{fill:none;stroke:#b45309;stroke-width:7;stroke-linecap:round;stroke-linejoin:round}.thin{fill:none;stroke:#94a3b8;stroke-width:4;stroke-linecap:round}.dash{stroke:#94a3b8;stroke-width:3;stroke-dasharray:10 10}.zone{fill:#e8f4ef;stroke:#0f766e;stroke-width:2;opacity:.9}.risk{fill:#fff3df;stroke:#b45309;stroke-width:2}.bar{fill:#0f766e;opacity:.92}.warn{fill:#b45309;opacity:.92}
</style><rect class="bg" width="960" height="540" rx="30"/><rect class="panel" x="42" y="42" width="876" height="456" rx="24"/><text x="72" y="82" class="sub">거래량·수급 해석</text><text x="72" y="124" class="title">Distribution Candle</text><text x="72" y="166" class="title">분산 캔들 해석과 고점권 위험</text><g opacity=".55"><path d="M120 190H850M120 285H850M120 380H850M210 130V430M370 130V430M530 130V430M690 130V430" stroke="#e7e3d8" stroke-width="1.4"/></g><g><line x1="180" y1="270" x2="180" y2="340" stroke="#0f766e" stroke-width="4"/><rect x="164" y="288" width="32" height="40" rx="5" fill="#0f766e"/>
  <line x1="275" y1="235" x2="275" y2="332" stroke="#0f766e" stroke-width="4"/><rect x="259" y="255" width="32" height="55" rx="5" fill="#0f766e"/>
  <line x1="370" y1="255" x2="370" y2="348" stroke="#b45309" stroke-width="4"/><rect x="354" y="285" width="32" height="45" rx="5" fill="#b45309"/>
  <line x1="465" y1="200" x2="465" y2="312" stroke="#0f766e" stroke-width="4"/><rect x="449" y="228" width="32" height="62" rx="5" fill="#0f766e"/></g><path class="dash" d="M125 250H835M125 370H835"/><text class="label" x="130" y="238">저항 가격대</text><text class="label" x="130" y="400">지지 가격대</text><text class="note" x="130" y="458">몸통·꼬리·종가 위치를 함께 읽기</text></svg>
