<svg xmlns="http://www.w3.org/2000/svg" width="960" height="540" viewBox="0 0 960 540" role="img" aria-labelledby="title desc">
<title id="title">Confluence Zone: 지지선·이평선·피보나치 겹침 구간 찾기 차트 학습 이미지</title>
<desc id="desc">가격 구조 분석 주제를 실제 차트 흐름과 핵심 기준으로 설명하는 한국어 교육 이미지</desc>
<style>
.bg{fill:#f6f4ed}.panel{fill:#fff;stroke:#d8ded6;stroke-width:2}.title{font:800 34px system-ui,-apple-system,BlinkMacSystemFont,"Segoe UI",sans-serif;fill:#10201f}.sub{font:800 22px system-ui,-apple-system,BlinkMacSystemFont,"Segoe UI",sans-serif;fill:#0f766e}.label{font:800 20px system-ui,-apple-system,BlinkMacSystemFont,"Segoe UI",sans-serif;fill:#10201f}.note{font:700 17px system-ui,-apple-system,BlinkMacSystemFont,"Segoe UI",sans-serif;fill:#647067}.line{fill:none;stroke:#0f766e;stroke-width:7;stroke-linecap:round;stroke-linejoin:round}.down{fill:none;stroke:#b45309;stroke-width:7;stroke-linecap:round;stroke-linejoin:round}.thin{fill:none;stroke:#94a3b8;stroke-width:4;stroke-linecap:round}.dash{stroke:#94a3b8;stroke-width:3;stroke-dasharray:10 10}.zone{fill:#e8f4ef;stroke:#0f766e;stroke-width:2;opacity:.9}.risk{fill:#fff3df;stroke:#b45309;stroke-width:2}.bar{fill:#0f766e;opacity:.92}.warn{fill:#b45309;opacity:.92}
</style><rect class="bg" width="960" height="540" rx="30"/><rect class="panel" x="42" y="42" width="876" height="456" rx="24"/><text x="72" y="82" class="sub">가격 구조 분석</text><text x="72" y="124" class="title">Confluence Zone</text><text x="72" y="166" class="title">지지선·이평선·피보나치 겹침 구간 찾기</text><g opacity=".55"><path d="M120 190H850M120 285H850M120 380H850M210 130V430M370 130V430M530 130V430M690 130V430" stroke="#e7e3d8" stroke-width="1.4"/></g><path class="line" d="M120 360L330 145L500 285L720 110"/><rect class="zone" x="330" y="175" width="320" height="105" rx="12"/><path class="dash" d="M330 180H650M330 230H650M330 280H650"/><g class="label"><text x="665" y="185">38.2%</text><text x="665" y="235">50%</text><text x="665" y="285">61.8%</text></g><text class="note" x="130" y="455">되돌림 후보는 지지·저항과 함께 확인</text></svg>
