<svg xmlns="http://www.w3.org/2000/svg" width="960" height="540" viewBox="0 0 960 540" role="img" aria-labelledby="title desc">
<title id="title">단타에서 손절이 중요한 이유: 짧은 시간축일수록 기준이 먼저입니다 차트 학습 이미지</title>
<desc id="desc">매매 스타일 주제를 실제 차트 흐름과 핵심 기준으로 설명하는 한국어 교육 이미지</desc>
<style>
.bg{fill:#f6f4ed}.panel{fill:#fff;stroke:#d8ded6;stroke-width:2}.title{font:800 34px system-ui,-apple-system,BlinkMacSystemFont,"Segoe UI",sans-serif;fill:#10201f}.sub{font:800 22px system-ui,-apple-system,BlinkMacSystemFont,"Segoe UI",sans-serif;fill:#0f766e}.label{font:800 20px system-ui,-apple-system,BlinkMacSystemFont,"Segoe UI",sans-serif;fill:#10201f}.note{font:700 17px system-ui,-apple-system,BlinkMacSystemFont,"Segoe UI",sans-serif;fill:#647067}.line{fill:none;stroke:#0f766e;stroke-width:7;stroke-linecap:round;stroke-linejoin:round}.down{fill:none;stroke:#b45309;stroke-width:7;stroke-linecap:round;stroke-linejoin:round}.thin{fill:none;stroke:#94a3b8;stroke-width:4;stroke-linecap:round}.dash{stroke:#94a3b8;stroke-width:3;stroke-dasharray:10 10}.zone{fill:#e8f4ef;stroke:#0f766e;stroke-width:2;opacity:.9}.risk{fill:#fff3df;stroke:#b45309;stroke-width:2}.bar{fill:#0f766e;opacity:.92}.warn{fill:#b45309;opacity:.92}
</style><rect class="bg" width="960" height="540" rx="30"/><rect class="panel" x="42" y="42" width="876" height="456" rx="24"/><text x="72" y="82" class="sub">매매 스타일</text><text x="72" y="124" class="title">단타에서 손절이 중요한 이유</text><text x="72" y="166" class="title">짧은 시간축일수록 기준이 먼저입니다</text><g opacity=".55"><path d="M120 190H850M120 285H850M120 380H850M210 130V430M370 130V430M530 130V430M690 130V430" stroke="#e7e3d8" stroke-width="1.4"/></g><path class="line" d="M125 360L260 320L390 340L520 270L650 220L825 150"/><path class="dash" d="M150 180H830M150 315H830M150 385H830"/><rect class="zone" x="520" y="180" width="170" height="135" rx="14"/><rect class="risk" x="520" y="315" width="170" height="70" rx="14"/><g class="label"><text x="160" y="170">목표가</text><text x="160" y="307">진입가</text><text x="160" y="415">손절가</text></g><text class="note" x="130" y="462">진입 전 손절폭과 보상 구간을 먼저 계산</text></svg>
