<svg xmlns="http://www.w3.org/2000/svg" width="960" height="540" viewBox="0 0 960 540" role="img" aria-labelledby="title desc">
<title id="title">5분봉과 15분봉 차이: 단타 초보가 시간축을 섞지 않는 법 차트 학습 이미지</title>
<desc id="desc">매매 스타일 주제를 실제 차트 흐름과 핵심 기준으로 설명하는 한국어 교육 이미지</desc>
<style>
.bg{fill:#f6f4ed}.panel{fill:#fff;stroke:#d8ded6;stroke-width:2}.title{font:800 34px system-ui,-apple-system,BlinkMacSystemFont,"Segoe UI",sans-serif;fill:#10201f}.sub{font:800 22px system-ui,-apple-system,BlinkMacSystemFont,"Segoe UI",sans-serif;fill:#0f766e}.label{font:800 20px system-ui,-apple-system,BlinkMacSystemFont,"Segoe UI",sans-serif;fill:#10201f}.note{font:700 17px system-ui,-apple-system,BlinkMacSystemFont,"Segoe UI",sans-serif;fill:#647067}.line{fill:none;stroke:#0f766e;stroke-width:7;stroke-linecap:round;stroke-linejoin:round}.down{fill:none;stroke:#b45309;stroke-width:7;stroke-linecap:round;stroke-linejoin:round}.thin{fill:none;stroke:#94a3b8;stroke-width:4;stroke-linecap:round}.dash{stroke:#94a3b8;stroke-width:3;stroke-dasharray:10 10}.zone{fill:#e8f4ef;stroke:#0f766e;stroke-width:2;opacity:.9}.risk{fill:#fff3df;stroke:#b45309;stroke-width:2}.bar{fill:#0f766e;opacity:.92}.warn{fill:#b45309;opacity:.92}
</style><rect class="bg" width="960" height="540" rx="30"/><rect class="panel" x="42" y="42" width="876" height="456" rx="24"/><text x="72" y="82" class="sub">매매 스타일</text><text x="72" y="124" class="title">5분봉과 15분봉 차이</text><text x="72" y="166" class="title">단타 초보가 시간축을 섞지 않는 법</text><rect class="zone" x="105" y="190" width="220" height="210" rx="18"/><rect class="panel" x="370" y="190" width="220" height="210" rx="18"/><rect class="risk" x="635" y="190" width="220" height="210" rx="18"/><path class="line" d="M130 340L190 275L250 298L300 235"/><path class="line" d="M395 330L455 265L515 285L565 230"/><path class="down" d="M660 260L720 290L785 255L835 315"/><g class="label"><text x="145" y="435">큰 시간축</text><text x="412" y="435">판단 기준</text><text x="670" y="435">진입 위치</text></g></svg>
