<svg xmlns="http://www.w3.org/2000/svg" width="960" height="540" viewBox="0 0 960 540" role="img" aria-labelledby="title desc">
<title id="title">장대양봉·장대음봉 해석: 큰 캔들을 위치와 거래량으로 읽는 법 교육 이미지</title>
<desc id="desc">차트 기초 주제를 한국어 차트 도식으로 설명하는 교육 이미지</desc>
<style>
.bg{fill:#f6f4ed}.panel{fill:#fff;stroke:#d8ded6;stroke-width:2}.title{font:800 31px system-ui,-apple-system,BlinkMacSystemFont,"Segoe UI",sans-serif;fill:#10201f}.sub{font:800 18px system-ui,-apple-system,BlinkMacSystemFont,"Segoe UI",sans-serif;fill:#0f766e}.label{font:800 18px system-ui,-apple-system,BlinkMacSystemFont,"Segoe UI",sans-serif;fill:#10201f}.note{font:700 15px system-ui,-apple-system,BlinkMacSystemFont,"Segoe UI",sans-serif;fill:#647067}.line{fill:none;stroke:#0f766e;stroke-width:7;stroke-linecap:round;stroke-linejoin:round}.down{fill:none;stroke:#b45309;stroke-width:7;stroke-linecap:round;stroke-linejoin:round}.thin{fill:none;stroke:#94a3b8;stroke-width:4;stroke-linecap:round}.dash{stroke:#94a3b8;stroke-width:3;stroke-dasharray:10 10}.zone{fill:#e8f4ef;stroke:#0f766e;stroke-width:2;opacity:.92}.risk{fill:#fff3df;stroke:#b45309;stroke-width:2}.bar{fill:#0f766e;opacity:.92}.warn{fill:#b45309;opacity:.92}
</style><rect class="bg" width="960" height="540" rx="30"/><rect class="panel" x="42" y="42" width="876" height="456" rx="24"/><text x="72" y="78" class="sub">차트 기초</text><text x="72" y="116" class="title">장대양봉·장대음봉 해석</text><text x="72" y="154" class="title">큰 캔들을 위치와 거래량으로 읽는 법</text><g opacity=".52"><path d="M120 190H850M120 285H850M120 380H850M210 130V430M370 130V430M530 130V430M690 130V430" stroke="#e7e3d8" stroke-width="1.4"/></g><g><line x1="180" y1="230" x2="180" y2="360" stroke="#0f766e" stroke-width="5"/><rect x="157" y="265" width="46" height="62" rx="6" fill="#0f766e"/><line x1="310" y1="210" x2="310" y2="390" stroke="#b45309" stroke-width="5"/><rect x="287" y="245" width="46" height="105" rx="6" fill="#b45309"/><line x1="440" y1="180" x2="440" y2="345" stroke="#0f766e" stroke-width="5"/><rect x="417" y="218" width="46" height="92" rx="6" fill="#0f766e"/><line x1="570" y1="210" x2="570" y2="405" stroke="#b45309" stroke-width="5"/><rect x="547" y="245" width="46" height="80" rx="6" fill="#b45309"/></g><text class="label" x="145" y="205">고가</text><text class="label" x="145" y="392">저가</text><text class="label" x="620" y="280">몸통과 꼬리 위치</text><text class="note" x="130" y="474">시가·고가·저가·종가와 꼬리의 의미를 함께 읽기</text></svg>
