<svg xmlns="http://www.w3.org/2000/svg" width="960" height="540" viewBox="0 0 960 540" role="img" aria-labelledby="title desc">
<title id="title">이동평균선 기초: 5일선·20일선·60일선 역할 쉽게 이해하기 차트 학습 이미지</title>
<desc id="desc">이동평균선 기초: 5일선·20일선·60일선 역할 쉽게 이해하기의 핵심 가격 위치, 거래량, 확인 구간, 무효화 기준을 함께 표시한 교육용 차트 이미지</desc>
<style>.title{font:800 30px system-ui,-apple-system,Segoe UI,sans-serif;fill:#10201f}.item{font:600 20px system-ui,-apple-system,Segoe UI,sans-serif;fill:#475569}.small{font:700 16px system-ui,-apple-system,Segoe UI,sans-serif;fill:#475569}.label{font:800 15px system-ui,-apple-system,Segoe UI,sans-serif;fill:#10201f}</style>
<rect width="960" height="540" fill="#f8fafc"/>
<rect x="32" y="32" width="896" height="476" rx="22" fill="white" stroke="#d8ded6"/>
<rect x="64" y="48" width="92" height="34" rx="17" fill="#e0f2fe" stroke="#0369a1" opacity="0.95"/>
<text x="84" y="71" class="small">초보</text>
<text x="176" y="71" class="small">차트 기초</text>
<text x="64" y="112" class="title">이동평균선 기초: 5일선·20일선·60일선 역할</text><text x="64" y="149" class="title">쉽게 이해하기</text>
<text x="64" y="205" class="item">핵심 주제: 이동평균선 기초: 5일선·20일선·60일선</text>
<g transform="translate(0,0)">
  <line x1="120" y1="398" x2="900" y2="398" stroke="#cbd5e1" stroke-width="2"/>
  <line x1="120" y1="278" x2="900" y2="278" stroke="#e2e8f0" stroke-width="2" stroke-dasharray="8 8"/>
  <path d="M120 340 C210 310 270 260 340 280 C430 305 480 210 560 190 C650 165 700 130 780 150 C840 160 870 120 900 100" fill="none" stroke="#16a34a" stroke-width="8" stroke-linecap="round" stroke-linejoin="round"/>
  <line x1="205" y1="287" x2="205" y2="342" stroke="#16a34a" stroke-width="5" stroke-linecap="round"/><rect x="191" y="302" width="28" height="38" rx="4" fill="#16a34a" opacity="0.92"/><line x1="325" y1="238" x2="325" y2="318" stroke="#dc2626" stroke-width="5" stroke-linecap="round"/><rect x="311" y="268" width="28" height="42" rx="4" fill="#dc2626" opacity="0.92"/><line x1="462" y1="210" x2="462" y2="286" stroke="#16a34a" stroke-width="5" stroke-linecap="round"/><rect x="448" y="226" width="28" height="46" rx="4" fill="#16a34a" opacity="0.92"/><line x1="604" y1="176" x2="604" y2="250" stroke="#16a34a" stroke-width="5" stroke-linecap="round"/><rect x="590" y="194" width="28" height="44" rx="4" fill="#16a34a" opacity="0.92"/><line x1="752" y1="146" x2="752" y2="226" stroke="#16a34a" stroke-width="5" stroke-linecap="round"/><rect x="738" y="166" width="28" height="42" rx="4" fill="#16a34a" opacity="0.92"/><line x1="842" y1="118" x2="842" y2="206" stroke="#dc2626" stroke-width="5" stroke-linecap="round"/><rect x="828" y="142" width="28" height="42" rx="4" fill="#dc2626" opacity="0.92"/>
  <rect x="132" y="410" width="26" height="42" rx="5" fill="#16a34a" opacity="0.72"/><rect x="184" y="394" width="26" height="58" rx="5" fill="#94a3b8" opacity="0.72"/><rect x="236" y="416" width="26" height="36" rx="5" fill="#94a3b8" opacity="0.72"/><rect x="288" y="376" width="26" height="76" rx="5" fill="#94a3b8" opacity="0.72"/><rect x="340" y="398" width="26" height="54" rx="5" fill="#16a34a" opacity="0.72"/><rect x="392" y="360" width="26" height="92" rx="5" fill="#94a3b8" opacity="0.72"/><rect x="444" y="404" width="26" height="48" rx="5" fill="#94a3b8" opacity="0.72"/><rect x="496" y="382" width="26" height="70" rx="5" fill="#94a3b8" opacity="0.72"/><rect x="548" y="397" width="26" height="55" rx="5" fill="#16a34a" opacity="0.72"/><rect x="600" y="342" width="26" height="110" rx="5" fill="#94a3b8" opacity="0.72"/><rect x="652" y="387" width="26" height="65" rx="5" fill="#94a3b8" opacity="0.72"/><rect x="704" y="370" width="26" height="82" rx="5" fill="#94a3b8" opacity="0.72"/><rect x="756" y="408" width="26" height="44" rx="5" fill="#16a34a" opacity="0.72"/><rect x="808" y="356" width="26" height="96" rx="5" fill="#94a3b8" opacity="0.72"/>
  <rect x="642" y="248" width="192" height="42" rx="21" fill="#fef3c7" stroke="#b45309"/>
  <text x="665" y="275" class="label">확인 구간</text>
  <line x1="650" y1="332" x2="852" y2="332" stroke="#dc2626" stroke-width="4" stroke-dasharray="9 8"/>
  <text x="662" y="358" class="small">무효화 기준</text>
</g>
</svg>
