<svg xmlns="http://www.w3.org/2000/svg" width="960" height="540" viewBox="0 0 960 540" role="img" aria-labelledby="title desc">
<title id="title">Fibonacci PRZ 구간: 되돌림과 확장 겹침 구간 해석 교육 이미지</title>
<desc id="desc">고급 차트 기술 주제를 한국어 차트 도식으로 설명하는 교육 이미지</desc>
<style>
.bg{fill:#f6f4ed}.panel{fill:#fff;stroke:#d8ded6;stroke-width:2}.title{font:800 31px system-ui,-apple-system,BlinkMacSystemFont,"Segoe UI",sans-serif;fill:#10201f}.sub{font:800 18px system-ui,-apple-system,BlinkMacSystemFont,"Segoe UI",sans-serif;fill:#0f766e}.label{font:800 18px system-ui,-apple-system,BlinkMacSystemFont,"Segoe UI",sans-serif;fill:#10201f}.note{font:700 15px system-ui,-apple-system,BlinkMacSystemFont,"Segoe UI",sans-serif;fill:#647067}.line{fill:none;stroke:#0f766e;stroke-width:7;stroke-linecap:round;stroke-linejoin:round}.down{fill:none;stroke:#b45309;stroke-width:7;stroke-linecap:round;stroke-linejoin:round}.thin{fill:none;stroke:#94a3b8;stroke-width:4;stroke-linecap:round}.dash{stroke:#94a3b8;stroke-width:3;stroke-dasharray:10 10}.zone{fill:#e8f4ef;stroke:#0f766e;stroke-width:2;opacity:.92}.risk{fill:#fff3df;stroke:#b45309;stroke-width:2}.bar{fill:#0f766e;opacity:.92}.warn{fill:#b45309;opacity:.92}
</style><rect class="bg" width="960" height="540" rx="30"/><rect class="panel" x="42" y="42" width="876" height="456" rx="24"/><text x="72" y="78" class="sub">고급 차트 기술</text><text x="72" y="116" class="title">Fibonacci PRZ 구간</text><text x="72" y="154" class="title">되돌림과 확장 겹침 구간 해석</text><g opacity=".52"><path d="M120 190H850M120 285H850M120 380H850M210 130V430M370 130V430M530 130V430M690 130V430" stroke="#e7e3d8" stroke-width="1.4"/></g><path class="line" d="M120 360L330 145L500 285L720 110"/><rect class="zone" x="330" y="175" width="320" height="105" rx="12"/><path class="dash" d="M330 180H650M330 230H650M330 280H650"/><text class="label" x="665" y="185">38.2%</text><text class="label" x="665" y="235">50%</text><text class="label" x="665" y="285">61.8%</text><text class="note" x="130" y="474">되돌림 비율은 지지·저항과 겹칠 때 의미가 커짐</text></svg>
