<svg xmlns="http://www.w3.org/2000/svg" width="960" height="540" viewBox="0 0 960 540" role="img" aria-labelledby="title desc">
<title id="title">상위 시간봉과 하위 시간봉 연결: 큰 구조와 세부 진입 정렬 교육 이미지</title>
<desc id="desc">고급 차트 기술 주제를 한국어 차트 도식으로 설명하는 교육 이미지</desc>
<style>
.bg{fill:#f6f4ed}.panel{fill:#fff;stroke:#d8ded6;stroke-width:2}.title{font:800 31px system-ui,-apple-system,BlinkMacSystemFont,"Segoe UI",sans-serif;fill:#10201f}.sub{font:800 18px system-ui,-apple-system,BlinkMacSystemFont,"Segoe UI",sans-serif;fill:#0f766e}.label{font:800 18px system-ui,-apple-system,BlinkMacSystemFont,"Segoe UI",sans-serif;fill:#10201f}.note{font:700 15px system-ui,-apple-system,BlinkMacSystemFont,"Segoe UI",sans-serif;fill:#647067}.line{fill:none;stroke:#0f766e;stroke-width:7;stroke-linecap:round;stroke-linejoin:round}.down{fill:none;stroke:#b45309;stroke-width:7;stroke-linecap:round;stroke-linejoin:round}.thin{fill:none;stroke:#94a3b8;stroke-width:4;stroke-linecap:round}.dash{stroke:#94a3b8;stroke-width:3;stroke-dasharray:10 10}.zone{fill:#e8f4ef;stroke:#0f766e;stroke-width:2;opacity:.92}.risk{fill:#fff3df;stroke:#b45309;stroke-width:2}.bar{fill:#0f766e;opacity:.92}.warn{fill:#b45309;opacity:.92}
</style><rect class="bg" width="960" height="540" rx="30"/><rect class="panel" x="42" y="42" width="876" height="456" rx="24"/><text x="72" y="78" class="sub">고급 차트 기술</text><text x="72" y="116" class="title">상위 시간봉과 하위 시간봉 연결</text><text x="72" y="154" class="title">큰 구조와 세부 진입 정렬</text><rect class="zone" x="105" y="190" width="220" height="210" rx="18"/><rect class="panel" x="370" y="190" width="220" height="210" rx="18"/><rect class="risk" x="635" y="190" width="220" height="210" rx="18"/><path class="line" d="M130 340L190 275L250 298L300 235"/><path class="line" d="M395 330L455 265L515 285L565 230"/><path class="down" d="M660 260L720 290L785 255L835 315"/><text class="label" x="145" y="435">큰 시간축</text><text class="label" x="412" y="435">판단 기준</text><text class="label" x="670" y="435">진입 위치</text></svg>
