<svg xmlns="http://www.w3.org/2000/svg" width="960" height="540" viewBox="0 0 960 540" role="img" aria-labelledby="title desc">
<title id="title">일목균형표 구름과 기준선: 추세와 균형 가격 읽기 교육 이미지</title>
<desc id="desc">보조지표 주제를 한국어 차트 도식으로 설명하는 교육 이미지</desc>
<style>
.bg{fill:#f6f4ed}.panel{fill:#fff;stroke:#d8ded6;stroke-width:2}.title{font:800 31px system-ui,-apple-system,BlinkMacSystemFont,"Segoe UI",sans-serif;fill:#10201f}.sub{font:800 18px system-ui,-apple-system,BlinkMacSystemFont,"Segoe UI",sans-serif;fill:#0f766e}.label{font:800 18px system-ui,-apple-system,BlinkMacSystemFont,"Segoe UI",sans-serif;fill:#10201f}.note{font:700 15px system-ui,-apple-system,BlinkMacSystemFont,"Segoe UI",sans-serif;fill:#647067}.line{fill:none;stroke:#0f766e;stroke-width:7;stroke-linecap:round;stroke-linejoin:round}.down{fill:none;stroke:#b45309;stroke-width:7;stroke-linecap:round;stroke-linejoin:round}.thin{fill:none;stroke:#94a3b8;stroke-width:4;stroke-linecap:round}.dash{stroke:#94a3b8;stroke-width:3;stroke-dasharray:10 10}.zone{fill:#e8f4ef;stroke:#0f766e;stroke-width:2;opacity:.92}.risk{fill:#fff3df;stroke:#b45309;stroke-width:2}.bar{fill:#0f766e;opacity:.92}.warn{fill:#b45309;opacity:.92}
</style><rect class="bg" width="960" height="540" rx="30"/><rect class="panel" x="42" y="42" width="876" height="456" rx="24"/><text x="72" y="78" class="sub">보조지표</text><text x="72" y="116" class="title">일목균형표 구름과 기준선</text><text x="72" y="154" class="title">추세와 균형 가격 읽기</text><g opacity=".52"><path d="M120 190H850M120 285H850M120 380H850M210 130V430M370 130V430M530 130V430M690 130V430" stroke="#e7e3d8" stroke-width="1.4"/></g><path class="line" d="M120 338L235 256L350 308L470 223L590 273"/><path class="down" d="M590 273L700 318L805 290L850 366"/><text class="label" x="215" y="243">높은 고점</text><text class="label" x="320" y="342">높은 저점</text><text class="label" x="675" y="353">낮은 고점</text><text class="label" x="790" y="398">낮은 저점</text><text class="note" x="130" y="474">고점과 저점의 순서가 바뀌면 추세 변화 후보</text></svg>
