<svg xmlns="http://www.w3.org/2000/svg" width="960" height="540" viewBox="0 0 960 540" role="img" aria-labelledby="title desc">
<title id="title">엘리엇 1파·3파·5파 구분: 충격파를 조심해서 해석하기 교육 이미지</title>
<desc id="desc">고급 차트 기술 주제를 한국어 차트 도식으로 설명하는 교육 이미지</desc>
<style>
.bg{fill:#f6f4ed}.panel{fill:#fff;stroke:#d8ded6;stroke-width:2}.title{font:800 31px system-ui,-apple-system,BlinkMacSystemFont,"Segoe UI",sans-serif;fill:#10201f}.sub{font:800 18px system-ui,-apple-system,BlinkMacSystemFont,"Segoe UI",sans-serif;fill:#0f766e}.label{font:800 18px system-ui,-apple-system,BlinkMacSystemFont,"Segoe UI",sans-serif;fill:#10201f}.note{font:700 15px system-ui,-apple-system,BlinkMacSystemFont,"Segoe UI",sans-serif;fill:#647067}.line{fill:none;stroke:#0f766e;stroke-width:7;stroke-linecap:round;stroke-linejoin:round}.down{fill:none;stroke:#b45309;stroke-width:7;stroke-linecap:round;stroke-linejoin:round}.thin{fill:none;stroke:#94a3b8;stroke-width:4;stroke-linecap:round}.dash{stroke:#94a3b8;stroke-width:3;stroke-dasharray:10 10}.zone{fill:#e8f4ef;stroke:#0f766e;stroke-width:2;opacity:.92}.risk{fill:#fff3df;stroke:#b45309;stroke-width:2}.bar{fill:#0f766e;opacity:.92}.warn{fill:#b45309;opacity:.92}
</style><rect class="bg" width="960" height="540" rx="30"/><rect class="panel" x="42" y="42" width="876" height="456" rx="24"/><text x="72" y="78" class="sub">고급 차트 기술</text><text x="72" y="116" class="title">엘리엇 1파·3파·5파 구분</text><text x="72" y="154" class="title">충격파를 조심해서 해석하기</text><g opacity=".52"><path d="M120 190H850M120 285H850M120 380H850M210 130V430M370 130V430M530 130V430M690 130V430" stroke="#e7e3d8" stroke-width="1.4"/></g><path class="line" d="M110 375L220 270L300 320L440 165L520 235L645 105"/><path class="down" d="M645 105L720 280L785 210L850 365"/><text class="label" x="213" y="252">1파</text><text class="label" x="292" y="350">2파</text><text class="label" x="432" y="148">3파</text><text class="label" x="512" y="264">4파</text><text class="label" x="637" y="92">5파</text><text class="label" x="712" y="309">A</text><text class="label" x="782" y="197">B</text><text class="label" x="842" y="395">C</text><text class="note" x="130" y="474">추세 5파와 조정 3파를 분리해 보기</text></svg>
