<svg xmlns="http://www.w3.org/2000/svg" width="960" height="540" viewBox="0 0 960 540" role="img" aria-labelledby="title desc">
<title id="title">엘리엇파동 기본 구조: 5파 상승과 3파 조정 이해 차트 학습 이미지</title>
<desc id="desc">엘리엇파동 기본 구조: 5파 상승과 3파 조정 이해의 핵심 구조를 설명하는 교육용 차트 이미지</desc>
<style>.title{font:800 29px system-ui,-apple-system,Segoe UI,sans-serif;fill:#10201f}.item{font:600 19px system-ui,-apple-system,Segoe UI,sans-serif;fill:#475569}.small{font:700 16px system-ui,-apple-system,Segoe UI,sans-serif;fill:#475569}.label{font:800 15px system-ui,-apple-system,Segoe UI,sans-serif;fill:#10201f}.muted{font:600 14px system-ui,-apple-system,Segoe UI,sans-serif;fill:#64748b}</style>

<rect width="960" height="540" fill="#f8fafc"/>
<rect x="32" y="32" width="896" height="476" rx="22" fill="white" stroke="#d8ded6"/>
<rect x="64" y="48" width="92" height="34" rx="17" fill="#fee2e2" stroke="#b91c1c" opacity="0.95"/>
<text x="84" y="71" class="small">고급</text>
<text x="176" y="71" class="small">고급 차트 기술</text>
<text x="64" y="108" class="title">엘리엇파동 기본 구조: 5파 상승과 3파 조정</text><text x="64" y="143" class="title">이해</text>
<text x="64" y="185" class="item">핵심 주제: 엘리엇파동 기본 구조</text>


<g>
  <polyline points="110,380 210,300 285,335 430,205 515,250 650,140 790,255 850,205 910,330" fill="none" stroke="#0f766e" stroke-width="7" stroke-linecap="round" stroke-linejoin="round"/>
  <g fill="#10201f" class="label">
    <text x="104" y="402">0</text><text x="205" y="286">1</text><text x="280" y="358">2</text><text x="425" y="190">3</text><text x="510" y="274">4</text><text x="646" y="126">5</text>
    <text x="785" y="282">A</text><text x="846" y="191">B</text><text x="904" y="354">C</text>
  </g>
  <rect x="126" y="414" width="248" height="44" rx="22" fill="#dcfce7" stroke="#16a34a"/><text x="150" y="442" class="label">1-2-3-4-5 추세 impulse</text>
  <rect x="595" y="414" width="250" height="44" rx="22" fill="#fee2e2" stroke="#dc2626"/><text x="624" y="442" class="label">A-B-C 조정</text>
  <g transform="translate(102,470)"><polyline points="0,18 42,0 78,14 128,36" fill="none" stroke="#2563eb" stroke-width="4"/><text x="142" y="26" class="muted">Zigzag 5-3-5</text></g>
  <g transform="translate(430,470)"><polyline points="0,18 45,8 82,16 132,10" fill="none" stroke="#7c3aed" stroke-width="4"/><text x="146" y="20" class="muted">Flat 3-3-5</text></g>
</g>
</svg>
