<svg xmlns="http://www.w3.org/2000/svg" width="960" height="540" viewBox="0 0 960 540" role="img" aria-labelledby="title desc">
<title id="title">Upthrust After Distribution: 분산 후 상단 돌파 실패 교육 이미지</title>
<desc id="desc">고급 차트 기술 주제를 한국어 차트 도식으로 설명하는 교육 이미지</desc>
<style>
.bg{fill:#f6f4ed}.panel{fill:#fff;stroke:#d8ded6;stroke-width:2}.title{font:800 31px system-ui,-apple-system,BlinkMacSystemFont,"Segoe UI",sans-serif;fill:#10201f}.sub{font:800 18px system-ui,-apple-system,BlinkMacSystemFont,"Segoe UI",sans-serif;fill:#0f766e}.label{font:800 18px system-ui,-apple-system,BlinkMacSystemFont,"Segoe UI",sans-serif;fill:#10201f}.note{font:700 15px system-ui,-apple-system,BlinkMacSystemFont,"Segoe UI",sans-serif;fill:#647067}.line{fill:none;stroke:#0f766e;stroke-width:7;stroke-linecap:round;stroke-linejoin:round}.down{fill:none;stroke:#b45309;stroke-width:7;stroke-linecap:round;stroke-linejoin:round}.thin{fill:none;stroke:#94a3b8;stroke-width:4;stroke-linecap:round}.dash{stroke:#94a3b8;stroke-width:3;stroke-dasharray:10 10}.zone{fill:#e8f4ef;stroke:#0f766e;stroke-width:2;opacity:.92}.risk{fill:#fff3df;stroke:#b45309;stroke-width:2}.bar{fill:#0f766e;opacity:.92}.warn{fill:#b45309;opacity:.92}
</style><rect class="bg" width="960" height="540" rx="30"/><rect class="panel" x="42" y="42" width="876" height="456" rx="24"/><text x="72" y="78" class="sub">고급 차트 기술</text><text x="72" y="116" class="title">Upthrust After Distribution</text><text x="72" y="154" class="title">분산 후 상단 돌파 실패</text><g opacity=".52"><path d="M120 190H850M120 285H850M120 380H850M210 130V430M370 130V430M530 130V430M690 130V430" stroke="#e7e3d8" stroke-width="1.4"/></g><rect class="zone" x="145" y="230" width="455" height="140" rx="14"/><path class="dash" d="M145 230H835"/><path class="line" d="M155 330L255 245L360 335L470 250L590 230L700 170L830 118"/><g><rect class="bar" x="170" y="404" width="30" height="44" rx="5"/><rect class="bar" x="275" y="388" width="30" height="60" rx="5"/><rect class="bar" x="595" y="323" width="30" height="125" rx="5"/><rect class="bar" x="735" y="353" width="30" height="95" rx="5"/></g><text class="label" x="155" y="218">박스 상단</text><text class="label" x="610" y="220">돌파 후 재시험</text><text class="note" x="130" y="474">돌파 순간보다 돌파 후 유지와 재시험을 함께 확인</text></svg>
