<svg xmlns="http://www.w3.org/2000/svg" width="960" height="540" viewBox="0 0 960 540" role="img" aria-labelledby="title desc">
<title id="title">Liquidity Sweep 이후 되돌림 진입: 회복 확인 후 접근하기 차트 학습 이미지</title>
<desc id="desc">고급 차트 기술 주제를 실제 차트 흐름과 핵심 기준으로 설명하는 한국어 교육 이미지</desc>
<style>
.bg{fill:#f6f4ed}.panel{fill:#fff;stroke:#d8ded6;stroke-width:2}.title{font:800 34px system-ui,-apple-system,BlinkMacSystemFont,"Segoe UI",sans-serif;fill:#10201f}.sub{font:800 22px system-ui,-apple-system,BlinkMacSystemFont,"Segoe UI",sans-serif;fill:#0f766e}.label{font:800 20px system-ui,-apple-system,BlinkMacSystemFont,"Segoe UI",sans-serif;fill:#10201f}.note{font:700 17px system-ui,-apple-system,BlinkMacSystemFont,"Segoe UI",sans-serif;fill:#647067}.line{fill:none;stroke:#0f766e;stroke-width:7;stroke-linecap:round;stroke-linejoin:round}.down{fill:none;stroke:#b45309;stroke-width:7;stroke-linecap:round;stroke-linejoin:round}.thin{fill:none;stroke:#94a3b8;stroke-width:4;stroke-linecap:round}.dash{stroke:#94a3b8;stroke-width:3;stroke-dasharray:10 10}.zone{fill:#e8f4ef;stroke:#0f766e;stroke-width:2;opacity:.9}.risk{fill:#fff3df;stroke:#b45309;stroke-width:2}.bar{fill:#0f766e;opacity:.92}.warn{fill:#b45309;opacity:.92}
</style><rect class="bg" width="960" height="540" rx="30"/><rect class="panel" x="42" y="42" width="876" height="456" rx="24"/><text x="72" y="82" class="sub">고급 차트 기술</text><text x="72" y="124" class="title">Liquidity Sweep 이후 되돌림 진입</text><text x="72" y="166" class="title">회복 확인 후 접근하기</text><g opacity=".55"><path d="M120 190H850M120 285H850M120 380H850M210 130V430M370 130V430M530 130V430M690 130V430" stroke="#e7e3d8" stroke-width="1.4"/></g><rect class="zone" x="145" y="190" width="650" height="180" rx="14"/><path class="dash" d="M145 190H795M145 370H795"/><path class="line" d="M155 330L260 220L365 340L475 230L590 335L705 190L840 125"/><g><rect class="bar" x="160" y="405" width="30" height="45" rx="5"/><rect class="bar" x="250" y="382" width="30" height="68" rx="5"/><rect class="bar" x="455" y="340" width="30" height="110" rx="5"/><rect class="bar" x="710" y="360" width="30" height="90" rx="5"/></g><text class="label" x="160" y="178">상단 저항</text><text class="label" x="160" y="402">하단 지지</text><text class="label" x="650" y="150">돌파 후 유지</text></svg>
