<svg xmlns="http://www.w3.org/2000/svg" width="960" height="540" viewBox="0 0 960 540" role="img"><defs><style>.bg{fill:#f8f6ef}.panel{fill:#fff;stroke:#d8d7cd;stroke-width:2}.grid{stroke:#e8e5da;stroke-width:1}.axis{stroke:#98a39a;stroke-width:2}.up{stroke:#0f766e;stroke-width:5;fill:none;stroke-linecap:round;stroke-linejoin:round}.down{stroke:#b45309;stroke-width:5;fill:none;stroke-linecap:round;stroke-linejoin:round}.muted{stroke:#647067;stroke-width:3;fill:none;stroke-linecap:round;stroke-linejoin:round}.thin{stroke:#647067;stroke-width:2;fill:none;stroke-linecap:round;stroke-linejoin:round}.dash{stroke-dasharray:8 8}.zone{fill:#0f766e;opacity:.10}.risk{fill:#b45309;opacity:.13}.target{fill:#0f766e;opacity:.16}.txt{font-family:Arial,'Noto Sans KR','Malgun Gothic',sans-serif;fill:#142420;font-weight:700}.small{font-size:20px}.mid{font-size:28px}.big{font-size:38px}.note{font-size:18px;fill:#50605a;font-weight:600}</style></defs><rect class="bg" width="960" height="540" rx="28"/><rect class="panel" x="42" y="42" width="876" height="456" rx="22"/><g opacity=".75"><path class="grid" d="M95 150H865M95 230H865M95 310H865M95 390H865M180 110V430M320 110V430M460 110V430M600 110V430M740 110V430"/></g><text class="txt big" x="72" y="94">박스권: 상단·하단·돌파 확인</text><rect class="zone" x="145" y="170" width="650" height="205" rx="14"/><path class="axis dash" d="M145 170H795M145 375H795"/><path class="up" d="M150 330L260 210L365 340L475 220L590 330L700 175L830 115"/><g fill="#0f766e"><rect x="575" y="395" width="32" height="60"/><rect x="695" y="355" width="32" height="100"/></g><text class="txt small" x="160" y="160">상단 저항</text><text class="txt small" x="160" y="405">하단 지지</text><text class="txt mid" x="630" y="140">돌파 후 유지 확인</text></svg>
