<svg xmlns="http://www.w3.org/2000/svg" width="960" height="540" viewBox="0 0 960 540" role="img"><defs><style>.bg{fill:#f8f6ef}.panel{fill:#fff;stroke:#d8d7cd;stroke-width:2}.grid{stroke:#e8e5da;stroke-width:1}.axis{stroke:#98a39a;stroke-width:2}.up{stroke:#0f766e;stroke-width:5;fill:none;stroke-linecap:round;stroke-linejoin:round}.down{stroke:#b45309;stroke-width:5;fill:none;stroke-linecap:round;stroke-linejoin:round}.muted{stroke:#647067;stroke-width:3;fill:none;stroke-linecap:round;stroke-linejoin:round}.thin{stroke:#647067;stroke-width:2;fill:none;stroke-linecap:round;stroke-linejoin:round}.dash{stroke-dasharray:8 8}.zone{fill:#0f766e;opacity:.10}.risk{fill:#b45309;opacity:.13}.target{fill:#0f766e;opacity:.16}.txt{font-family:Arial,'Noto Sans KR','Malgun Gothic',sans-serif;fill:#142420;font-weight:700}.small{font-size:20px}.mid{font-size:28px}.big{font-size:38px}.note{font-size:18px;fill:#50605a;font-weight:600}</style></defs><rect class="bg" width="960" height="540" rx="28"/><rect class="panel" x="42" y="42" width="876" height="456" rx="22"/><g opacity=".75"><path class="grid" d="M95 150H865M95 230H865M95 310H865M95 390H865M180 110V430M320 110V430M460 110V430M600 110V430M740 110V430"/></g><text class="txt big" x="72" y="94">과열 구간: 거래량과 윗꼬리 주의</text><path class="up" d="M130 360L250 300L360 245L475 180L600 135L720 150L835 220"/><rect class="risk" x="610" y="110" width="210" height="145" rx="14"/><g fill="#b45309"><rect x="625" y="355" width="30" height="100"/><rect x="710" y="330" width="30" height="125"/></g><line class="axis" x1="705" y1="100" x2="705" y2="240"/><rect x="675" y="140" width="60" height="65" fill="#b45309" rx="8"/><text class="txt mid" x="555" y="290">고점권 거래량 폭증</text><text class="txt small" x="620" y="100">윗꼬리·분산 후보</text></svg>
