<svg xmlns="http://www.w3.org/2000/svg" width="960" height="540" viewBox="0 0 960 540" role="img"><defs><style>.bg{fill:#f8f6ef}.panel{fill:#fff;stroke:#d8d7cd;stroke-width:2}.grid{stroke:#e8e5da;stroke-width:1}.axis{stroke:#98a39a;stroke-width:2}.up{stroke:#0f766e;stroke-width:5;fill:none;stroke-linecap:round;stroke-linejoin:round}.down{stroke:#b45309;stroke-width:5;fill:none;stroke-linecap:round;stroke-linejoin:round}.muted{stroke:#647067;stroke-width:3;fill:none;stroke-linecap:round;stroke-linejoin:round}.thin{stroke:#647067;stroke-width:2;fill:none;stroke-linecap:round;stroke-linejoin:round}.dash{stroke-dasharray:8 8}.zone{fill:#0f766e;opacity:.10}.risk{fill:#b45309;opacity:.13}.target{fill:#0f766e;opacity:.16}.txt{font-family:Arial,sans-serif;fill:#142420;font-weight:700}.small{font-size:20px}.mid{font-size:28px}.big{font-size:38px}.note{font-size:18px;fill:#50605a;font-weight:600}.label{fill:#fff;font-size:16px;font-weight:700}</style></defs><rect class="bg" width="960" height="540" rx="28"/><rect class="panel" x="42" y="42" width="876" height="456" rx="22"/><g opacity=".75"><path class="grid" d="M95 150H865M95 230H865M95 310H865M95 390H865M180 110V430M320 110V430M460 110V430M600 110V430M740 110V430"/></g><text class="txt big" x="72" y="94">Elliott Wave: 5-Wave Impulse and ABC Correction</text><path class="axis" d="M95 414H850"/><path class="up" d="M110 360L230 250L310 305L455 145L540 215L665 92"/><path class="down" d="M665 92L735 265L790 195L860 360"/><g class="txt mid"><text x="105" y="388">0</text><text x="224" y="232">1</text><text x="304" y="334">2</text><text x="448" y="126">3</text><text x="535" y="246">4</text><text x="658" y="74">5</text><text x="726" y="294">A</text><text x="785" y="182">B</text><text x="856" y="392">C</text></g><text class="txt mid" x="120" y="462">Impulse: 1-2-3-4-5</text><text class="txt mid" x="585" y="462">Correction: A-B-C</text></svg>
