<svg xmlns="http://www.w3.org/2000/svg" width="960" height="540" viewBox="0 0 960 540" role="img" aria-labelledby="title desc">
<title id="title">저항이 지지로 바뀌는 역할 전환 확인법 교육 이미지</title>
<desc id="desc">가격 구조 분석 주제를 한국어 차트 도식으로 설명하는 교육 이미지</desc>
<style>
.bg{fill:#f6f4ed}.panel{fill:#fff;stroke:#d8ded6;stroke-width:2}.title{font:800 31px system-ui,-apple-system,BlinkMacSystemFont,"Segoe UI",sans-serif;fill:#10201f}.sub{font:800 18px system-ui,-apple-system,BlinkMacSystemFont,"Segoe UI",sans-serif;fill:#0f766e}.label{font:800 18px system-ui,-apple-system,BlinkMacSystemFont,"Segoe UI",sans-serif;fill:#10201f}.note{font:700 15px system-ui,-apple-system,BlinkMacSystemFont,"Segoe UI",sans-serif;fill:#647067}.line{fill:none;stroke:#0f766e;stroke-width:7;stroke-linecap:round;stroke-linejoin:round}.down{fill:none;stroke:#b45309;stroke-width:7;stroke-linecap:round;stroke-linejoin:round}.thin{fill:none;stroke:#94a3b8;stroke-width:4;stroke-linecap:round}.dash{stroke:#94a3b8;stroke-width:3;stroke-dasharray:10 10}.zone{fill:#e8f4ef;stroke:#0f766e;stroke-width:2;opacity:.92}.risk{fill:#fff3df;stroke:#b45309;stroke-width:2}.bar{fill:#0f766e;opacity:.92}.warn{fill:#b45309;opacity:.92}
</style><rect class="bg" width="960" height="540" rx="30"/><rect class="panel" x="42" y="42" width="876" height="456" rx="24"/><text x="72" y="78" class="sub">가격 구조 분석</text><text x="72" y="116" class="title">저항이 지지로 바뀌는 역할 전환 확인법</text><g opacity=".52"><path d="M120 190H850M120 285H850M120 380H850M210 130V430M370 130V430M530 130V430M690 130V430" stroke="#e7e3d8" stroke-width="1.4"/></g><path class="dash" d="M140 260H830"/><path class="line" d="M135 330L260 255L375 310L500 250L610 175L735 260L845 195"/><g><rect class="bar" x="170" y="408" width="30" height="40" rx="5"/><rect class="bar" x="300" y="393" width="30" height="55" rx="5"/><rect class="bar" x="605" y="328" width="30" height="120" rx="5"/><rect class="bar" x="760" y="378" width="30" height="70" rx="5"/></g><text class="label" x="150" y="246">기존 저항</text><text class="label" x="610" y="292">되돌림 지지 확인</text><text class="note" x="130" y="474">저항을 돌파한 뒤 같은 구간이 지지로 바뀌는지 관찰</text></svg>
