<svg xmlns="http://www.w3.org/2000/svg" width="960" height="540" viewBox="0 0 960 540" role="img" aria-labelledby="title desc">
<title id="title">이전 지지선 회복 여부: 깨진 지지가 다시 기준이 되는지 보기 교육 이미지</title>
<desc id="desc">가격 구조 분석 주제를 한국어 차트 도식으로 설명하는 교육 이미지</desc>
<style>
.bg{fill:#f6f4ed}.panel{fill:#fff;stroke:#d8ded6;stroke-width:2}.title{font:800 31px system-ui,-apple-system,BlinkMacSystemFont,"Segoe UI",sans-serif;fill:#10201f}.sub{font:800 18px system-ui,-apple-system,BlinkMacSystemFont,"Segoe UI",sans-serif;fill:#0f766e}.label{font:800 18px system-ui,-apple-system,BlinkMacSystemFont,"Segoe UI",sans-serif;fill:#10201f}.note{font:700 15px system-ui,-apple-system,BlinkMacSystemFont,"Segoe UI",sans-serif;fill:#647067}.line{fill:none;stroke:#0f766e;stroke-width:7;stroke-linecap:round;stroke-linejoin:round}.down{fill:none;stroke:#b45309;stroke-width:7;stroke-linecap:round;stroke-linejoin:round}.thin{fill:none;stroke:#94a3b8;stroke-width:4;stroke-linecap:round}.dash{stroke:#94a3b8;stroke-width:3;stroke-dasharray:10 10}.zone{fill:#e8f4ef;stroke:#0f766e;stroke-width:2;opacity:.92}.risk{fill:#fff3df;stroke:#b45309;stroke-width:2}.bar{fill:#0f766e;opacity:.92}.warn{fill:#b45309;opacity:.92}
</style><rect class="bg" width="960" height="540" rx="30"/><rect class="panel" x="42" y="42" width="876" height="456" rx="24"/><text x="72" y="78" class="sub">가격 구조 분석</text><text x="72" y="116" class="title">이전 지지선 회복 여부</text><text x="72" y="154" class="title">깨진 지지가 다시 기준이 되는지 보기</text><g opacity=".52"><path d="M120 190H850M120 285H850M120 380H850M210 130V430M370 130V430M530 130V430M690 130V430" stroke="#e7e3d8" stroke-width="1.4"/></g><path class="dash" d="M130 280H825"/><path class="down" d="M130 250L250 220L365 282L475 335"/><path class="line" d="M475 335L585 292L690 276L820 210"/><g><rect class="bar" x="170" y="396" width="30" height="52" rx="5"/><rect class="bar" x="360" y="352" width="30" height="96" rx="5"/><rect class="bar" x="540" y="383" width="30" height="65" rx="5"/><rect class="bar" x="735" y="338" width="30" height="110" rx="5"/></g><text class="label" x="140" y="267">깨진 지지선</text><text class="label" x="610" y="260">회복 후 기준 재확인</text><text class="note" x="130" y="474">이탈했던 지지선 위로 다시 올라오는지 확인</text></svg>
