<svg xmlns="http://www.w3.org/2000/svg" width="960" height="540" viewBox="0 0 960 540" role="img" aria-labelledby="title desc">
<title id="title">이전 고점과 이전 저점 활용: 돌파와 이탈 기준 잡기 교육 이미지</title>
<desc id="desc">가격 구조 분석 주제를 한국어 차트 도식으로 설명하는 교육 이미지</desc>
<style>
.bg{fill:#f6f4ed}.panel{fill:#fff;stroke:#d8ded6;stroke-width:2}.title{font:800 31px system-ui,-apple-system,BlinkMacSystemFont,"Segoe UI",sans-serif;fill:#10201f}.sub{font:800 18px system-ui,-apple-system,BlinkMacSystemFont,"Segoe UI",sans-serif;fill:#0f766e}.label{font:800 18px system-ui,-apple-system,BlinkMacSystemFont,"Segoe UI",sans-serif;fill:#10201f}.note{font:700 15px system-ui,-apple-system,BlinkMacSystemFont,"Segoe UI",sans-serif;fill:#647067}.line{fill:none;stroke:#0f766e;stroke-width:7;stroke-linecap:round;stroke-linejoin:round}.down{fill:none;stroke:#b45309;stroke-width:7;stroke-linecap:round;stroke-linejoin:round}.thin{fill:none;stroke:#94a3b8;stroke-width:4;stroke-linecap:round}.dash{stroke:#94a3b8;stroke-width:3;stroke-dasharray:10 10}.zone{fill:#e8f4ef;stroke:#0f766e;stroke-width:2;opacity:.92}.risk{fill:#fff3df;stroke:#b45309;stroke-width:2}.bar{fill:#0f766e;opacity:.92}.warn{fill:#b45309;opacity:.92}
</style><rect class="bg" width="960" height="540" rx="30"/><rect class="panel" x="42" y="42" width="876" height="456" rx="24"/><text x="72" y="78" class="sub">가격 구조 분석</text><text x="72" y="116" class="title">이전 고점과 이전 저점 활용</text><text x="72" y="154" class="title">돌파와 이탈 기준 잡기</text><g opacity=".52"><path d="M120 190H850M120 285H850M120 380H850M210 130V430M370 130V430M530 130V430M690 130V430" stroke="#e7e3d8" stroke-width="1.4"/></g><path class="dash" d="M125 218H835M125 370H835"/><path class="line" d="M130 360L250 275L365 335L490 215L615 295L760 185L845 230"/><g><rect class="bar" x="155" y="403" width="30" height="45" rx="5"/><rect class="bar" x="250" y="378" width="30" height="70" rx="5"/><rect class="bar" x="455" y="336" width="30" height="112" rx="5"/><rect class="bar" x="715" y="362" width="30" height="86" rx="5"/></g><text class="label" x="135" y="205">이전 고점</text><text class="label" x="135" y="400">이전 저점</text><text class="label" x="615" y="178">돌파 기준</text><text class="note" x="130" y="474">이전 고점 돌파와 이전 저점 이탈을 기준선으로 표시</text></svg>
