<svg xmlns="http://www.w3.org/2000/svg" width="960" height="540" viewBox="0 0 960 540" role="img" aria-labelledby="title desc">
<title id="title">MACD 0선 위·아래 추세 해석: 모멘텀 위치 확인 차트 학습 이미지</title>
<desc id="desc">보조지표 주제를 실제 차트 흐름과 핵심 기준으로 설명하는 한국어 교육 이미지</desc>
<style>
.bg{fill:#f6f4ed}.panel{fill:#fff;stroke:#d8ded6;stroke-width:2}.title{font:800 34px system-ui,-apple-system,BlinkMacSystemFont,"Segoe UI",sans-serif;fill:#10201f}.sub{font:800 22px system-ui,-apple-system,BlinkMacSystemFont,"Segoe UI",sans-serif;fill:#0f766e}.label{font:800 20px system-ui,-apple-system,BlinkMacSystemFont,"Segoe UI",sans-serif;fill:#10201f}.note{font:700 17px system-ui,-apple-system,BlinkMacSystemFont,"Segoe UI",sans-serif;fill:#647067}.line{fill:none;stroke:#0f766e;stroke-width:7;stroke-linecap:round;stroke-linejoin:round}.down{fill:none;stroke:#b45309;stroke-width:7;stroke-linecap:round;stroke-linejoin:round}.thin{fill:none;stroke:#94a3b8;stroke-width:4;stroke-linecap:round}.dash{stroke:#94a3b8;stroke-width:3;stroke-dasharray:10 10}.zone{fill:#e8f4ef;stroke:#0f766e;stroke-width:2;opacity:.9}.risk{fill:#fff3df;stroke:#b45309;stroke-width:2}.bar{fill:#0f766e;opacity:.92}.warn{fill:#b45309;opacity:.92}
</style><rect class="bg" width="960" height="540" rx="30"/><rect class="panel" x="42" y="42" width="876" height="456" rx="24"/><text x="72" y="82" class="sub">보조지표</text><text x="72" y="124" class="title">MACD 0선 위·아래 추세 해석</text><text x="72" y="166" class="title">모멘텀 위치 확인</text><g opacity=".55"><path d="M120 190H850M120 285H850M120 380H850M210 130V430M370 130V430M530 130V430M690 130V430" stroke="#e7e3d8" stroke-width="1.4"/></g><path class="line" d="M120 320L250 240L390 285L540 175L700 245L840 155"/><rect class="panel" x="125" y="360" width="720" height="82" rx="12"/><path class="thin" d="M145 410L260 382L390 405L540 392L700 420L825 407"/><path class="dash" d="M540 175L840 155M540 392L825 407"/><text class="label" x="135" y="348">가격 위치 먼저</text><text class="label" x="140" y="468">지표는 확인 도구</text></svg>
