<svg xmlns="http://www.w3.org/2000/svg" width="960" height="540" viewBox="0 0 960 540" role="img" aria-labelledby="title desc">
<title id="title">윗꼬리 캔들과 매도 압력: 위에서 밀린 흔적 읽기 차트 학습 이미지</title>
<desc id="desc">윗꼬리 캔들과 매도 압력: 위에서 밀린 흔적 읽기의 핵심 구조를 설명하는 교육용 차트 이미지</desc>
<style>.title{font:800 29px system-ui,-apple-system,Segoe UI,sans-serif;fill:#10201f}.item{font:600 19px system-ui,-apple-system,Segoe UI,sans-serif;fill:#475569}.small{font:700 16px system-ui,-apple-system,Segoe UI,sans-serif;fill:#475569}.label{font:800 15px system-ui,-apple-system,Segoe UI,sans-serif;fill:#10201f}.muted{font:600 14px system-ui,-apple-system,Segoe UI,sans-serif;fill:#64748b}</style>

<rect width="960" height="540" fill="#f8fafc"/>
<rect x="32" y="32" width="896" height="476" rx="22" fill="white" stroke="#d8ded6"/>
<rect x="64" y="48" width="92" height="34" rx="17" fill="#dcfce7" stroke="#15803d" opacity="0.95"/>
<text x="84" y="71" class="small">초중급</text>
<text x="176" y="71" class="small">차트 기초</text>
<text x="64" y="108" class="title">윗꼬리 캔들과 매도 압력: 위에서 밀린 흔적</text><text x="64" y="143" class="title">읽기</text>
<text x="64" y="185" class="item">핵심 주제: 윗꼬리 캔들과 매도 압력</text>


<g>
  <line x1="280" y1="230" x2="280" y2="390" stroke="#16a34a" stroke-width="8" stroke-linecap="round"/><rect x="240" y="275" width="80" height="76" rx="8" fill="#16a34a"/>
  <text x="190" y="270" class="label">High</text><text x="195" y="397" class="label">Low</text><text x="330" y="296" class="label">Close</text><text x="330" y="348" class="label">Open</text>
  <line x1="520" y1="210" x2="520" y2="395" stroke="#dc2626" stroke-width="8" stroke-linecap="round"/><rect x="480" y="250" width="80" height="95" rx="8" fill="#dc2626"/>
  <text x="612" y="270" class="label">저항</text><line x1="610" y1="278" x2="820" y2="278" stroke="#dc2626" stroke-width="3" stroke-dasharray="8 8"/>
  <text x="612" y="360" class="label">지지</text><line x1="610" y1="368" x2="820" y2="368" stroke="#16a34a" stroke-width="3" stroke-dasharray="8 8"/>
</g>
</svg>
