<svg xmlns="http://www.w3.org/2000/svg" width="960" height="540" viewBox="0 0 960 540" role="img" aria-labelledby="title desc">
<title id="title">Climax Volume: 고점 거래량 해석과 과열 신호 차트 학습 이미지</title>
<desc id="desc">Climax Volume: 고점 거래량 해석과 과열 신호의 핵심 구조를 설명하는 교육용 차트 이미지</desc>
<style>.title{font:800 29px system-ui,-apple-system,Segoe UI,sans-serif;fill:#10201f}.item{font:600 19px system-ui,-apple-system,Segoe UI,sans-serif;fill:#475569}.small{font:700 16px system-ui,-apple-system,Segoe UI,sans-serif;fill:#475569}.label{font:800 15px system-ui,-apple-system,Segoe UI,sans-serif;fill:#10201f}.muted{font:600 14px system-ui,-apple-system,Segoe UI,sans-serif;fill:#64748b}</style>

<rect width="960" height="540" fill="#f8fafc"/>
<rect x="32" y="32" width="896" height="476" rx="22" fill="white" stroke="#d8ded6"/>
<rect x="64" y="48" width="92" height="34" rx="17" fill="#dcfce7" stroke="#15803d" opacity="0.95"/>
<text x="84" y="71" class="small">초중급</text>
<text x="176" y="71" class="small">거래량·수급 해석</text>
<text x="64" y="108" class="title">Climax Volume: 고점 거래량 해석과</text><text x="64" y="143" class="title">과열 신호</text>
<text x="64" y="185" class="item">핵심 주제: Climax Volume: 고점 거래량 해석</text>


<g>
  <line x1="125" y1="380" x2="875" y2="380" stroke="#cbd5e1" stroke-width="2"/>
  <line x1="125" y1="240" x2="875" y2="240" stroke="#e2e8f0" stroke-width="2" stroke-dasharray="8 8"/>
  <path d="M130 350 C230 318 290 285 360 292 C450 302 500 220 590 210 C690 188 730 142 850 150" fill="none" stroke="#0f9f6e" stroke-width="7" stroke-linecap="round"/>
  <line x1="190" y1="342" x2="190" y2="292" stroke="#16a34a" stroke-width="5"/><rect x="176" y="305" width="28" height="28" rx="4" fill="#16a34a"/><line x1="305" y1="318" x2="305" y2="250" stroke="#16a34a" stroke-width="5"/><rect x="291" y="270" width="28" height="38" rx="4" fill="#16a34a"/><line x1="430" y1="280" x2="430" y2="218" stroke="#dc2626" stroke-width="5"/><rect x="416" y="238" width="28" height="28" rx="4" fill="#dc2626"/><line x1="560" y1="254" x2="560" y2="188" stroke="#16a34a" stroke-width="5"/><rect x="546" y="203" width="28" height="38" rx="4" fill="#16a34a"/><line x1="720" y1="210" x2="720" y2="150" stroke="#dc2626" stroke-width="5"/><rect x="706" y="166" width="28" height="34" rx="4" fill="#dc2626"/>
  <rect x="150" y="421" width="24" height="34" rx="4" fill="#16a34a" opacity=".7"/><rect x="195" y="411" width="24" height="44" rx="4" fill="#94a3b8" opacity=".7"/><rect x="240" y="417" width="24" height="38" rx="4" fill="#94a3b8" opacity=".7"/><rect x="285" y="383" width="24" height="72" rx="4" fill="#94a3b8" opacity=".7"/><rect x="330" y="410" width="24" height="45" rx="4" fill="#16a34a" opacity=".7"/><rect x="375" y="400" width="24" height="55" rx="4" fill="#94a3b8" opacity=".7"/><rect x="420" y="367" width="24" height="88" rx="4" fill="#94a3b8" opacity=".7"/><rect x="465" y="413" width="24" height="42" rx="4" fill="#94a3b8" opacity=".7"/><rect x="510" y="389" width="24" height="66" rx="4" fill="#16a34a" opacity=".7"/><rect x="555" y="401" width="24" height="54" rx="4" fill="#94a3b8" opacity=".7"/><rect x="600" y="353" width="24" height="102" rx="4" fill="#94a3b8" opacity=".7"/><rect x="645" y="409" width="24" height="46" rx="4" fill="#94a3b8" opacity=".7"/><rect x="690" y="385" width="24" height="70" rx="4" fill="#16a34a" opacity=".7"/><rect x="735" y="397" width="24" height="58" rx="4" fill="#94a3b8" opacity=".7"/>

  <rect x="570" y="350" width="138" height="34" rx="17" fill="#fef3c7" stroke="#b45309"/><text x="592" y="373" class="label">거래량 spike</text>
  <line x1="610" y1="350" x2="610" y2="250" stroke="#b45309" stroke-width="3" stroke-dasharray="6 6"/>

</g>
</svg>
