<svg xmlns="http://www.w3.org/2000/svg" width="960" height="540" viewBox="0 0 960 540" role="img"><defs><style>.bg{fill:#f8f6ef}.panel{fill:#fff;stroke:#d8d7cd;stroke-width:2}.grid{stroke:#e8e5da;stroke-width:1}.axis{stroke:#98a39a;stroke-width:2}.up{stroke:#0f766e;stroke-width:5;fill:none;stroke-linecap:round;stroke-linejoin:round}.down{stroke:#b45309;stroke-width:5;fill:none;stroke-linecap:round;stroke-linejoin:round}.muted{stroke:#647067;stroke-width:3;fill:none;stroke-linecap:round;stroke-linejoin:round}.thin{stroke:#647067;stroke-width:2;fill:none;stroke-linecap:round;stroke-linejoin:round}.dash{stroke-dasharray:8 8}.zone{fill:#0f766e;opacity:.10}.risk{fill:#b45309;opacity:.13}.target{fill:#0f766e;opacity:.16}.txt{font-family:Arial,sans-serif;fill:#142420;font-weight:700}.small{font-size:20px}.mid{font-size:28px}.big{font-size:38px}.note{font-size:18px;fill:#50605a;font-weight:600}.label{fill:#fff;font-size:16px;font-weight:700}</style></defs><rect class="bg" width="960" height="540" rx="28"/><rect class="panel" x="42" y="42" width="876" height="456" rx="22"/><g opacity=".75"><path class="grid" d="M95 150H865M95 230H865M95 310H865M95 390H865M180 110V430M320 110V430M460 110V430M600 110V430M740 110V430"/></g><text class="txt big" x="72" y="94">Divergence Is a Warning, Not Confirmation</text><path class="up" d="M130 315L260 220L390 270L545 150L700 240L835 125"/><path class="muted" d="M130 430L260 375L390 405L545 390L700 420L835 410"/><path class="axis dash" d="M545 150L835 125M545 390L835 410"/><text class="txt small" x="130" y="468">Price higher high + indicator lower high = momentum weakness candidate</text></svg>
