<svg xmlns="http://www.w3.org/2000/svg" width="960" height="540" viewBox="0 0 960 540" role="img"><defs><style>.bg{fill:#f8f6ef}.panel{fill:#fff;stroke:#d8d7cd;stroke-width:2}.axis{stroke:#98a39a;stroke-width:2}.up{stroke:#0f766e;stroke-width:5;fill:none;stroke-linecap:round;stroke-linejoin:round}.down{stroke:#b45309;stroke-width:5;fill:none;stroke-linecap:round;stroke-linejoin:round}.muted{stroke:#647067;stroke-width:3;fill:none;stroke-linecap:round;stroke-linejoin:round}.zone{fill:#0f766e;opacity:.10}.risk{fill:#b45309;opacity:.13}.txt{font-family:Arial,'Noto Sans KR',sans-serif;fill:#142420;font-weight:700}.small{font-size:20px}.mid{font-size:28px}.big{font-size:40px}.thin{font-weight:500;fill:#50605a}.dash{stroke-dasharray:8 8}</style></defs><rect class="bg" width="960" height="540" rx="28"/><rect class="panel" x="42" y="42" width="876" height="456" rx="22"/><text class="txt big" x="72" y="94">Correction Types: Zigzag / Flat / Triangle</text><g transform="translate(85 145)"><text class="txt mid" x="0" y="0">Zigzag 5-3-5</text><path class="down" d="M10 65L115 150L180 105L290 205"/><text class="txt small" x="12" y="235">?? ???? ?? ??</text></g><g transform="translate(360 145)"><text class="txt mid" x="0" y="0">Flat 3-3-5</text><path class="muted" d="M10 105L105 170L195 105L290 180"/><path class="axis dash" d="M10 105H300"/><text class="txt small" x="12" y="235">B?? ?? ???? ??</text></g><g transform="translate(640 145)"><text class="txt mid" x="0" y="0">Triangle</text><path class="muted" d="M10 65L260 145M10 205L260 125"/><path class="up" d="M20 90L75 185L125 112L178 168L235 132"/><text class="txt small" x="12" y="235">?? ???? ?? ??</text></g></svg>
