<svg xmlns="http://www.w3.org/2000/svg" width="960" height="540" viewBox="0 0 960 540" role="img"><defs><style>.bg{fill:#f8f6ef}.panel{fill:#fff;stroke:#d8d7cd;stroke-width:2}.grid{stroke:#e8e5da;stroke-width:1}.axis{stroke:#98a39a;stroke-width:2}.up{stroke:#0f766e;stroke-width:5;fill:none;stroke-linecap:round;stroke-linejoin:round}.down{stroke:#b45309;stroke-width:5;fill:none;stroke-linecap:round;stroke-linejoin:round}.muted{stroke:#647067;stroke-width:3;fill:none;stroke-linecap:round;stroke-linejoin:round}.thin{stroke:#647067;stroke-width:2;fill:none;stroke-linecap:round;stroke-linejoin:round}.dash{stroke-dasharray:8 8}.zone{fill:#0f766e;opacity:.10}.risk{fill:#b45309;opacity:.13}.target{fill:#0f766e;opacity:.16}.txt{font-family:Arial,sans-serif;fill:#142420;font-weight:700}.small{font-size:20px}.mid{font-size:28px}.big{font-size:38px}.note{font-size:18px;fill:#50605a;font-weight:600}.label{fill:#fff;font-size:16px;font-weight:700}</style></defs><rect class="bg" width="960" height="540" rx="28"/><rect class="panel" x="42" y="42" width="876" height="456" rx="22"/><g opacity=".75"><path class="grid" d="M95 150H865M95 230H865M95 310H865M95 390H865M180 110V430M320 110V430M460 110V430M600 110V430M740 110V430"/></g><text class="txt big" x="72" y="94">Entry / Stop / Target / R-Multiple</text><path class="up" d="M120 340L260 300L390 325L520 265L650 210L820 145"/><path class="axis dash" d="M145 310H825M145 385H825M145 165H825"/><text class="txt mid" x="150" y="155">Target +2R</text><text class="txt mid" x="150" y="300">Entry</text><text class="txt mid" x="150" y="415">Stop -1R</text><rect class="target" x="520" y="165" width="170" height="145" rx="12"/><rect class="risk" x="520" y="310" width="170" height="75" rx="12"/></svg>
