<svg xmlns="http://www.w3.org/2000/svg" width="960" height="540" viewBox="0 0 960 540" role="img"><defs><style>.bg{fill:#f8f6ef}.panel{fill:#fff;stroke:#d8d7cd;stroke-width:2}.grid{stroke:#e8e5da;stroke-width:1}.axis{stroke:#98a39a;stroke-width:2}.up{stroke:#0f766e;stroke-width:5;fill:none;stroke-linecap:round;stroke-linejoin:round}.down{stroke:#b45309;stroke-width:5;fill:none;stroke-linecap:round;stroke-linejoin:round}.muted{stroke:#647067;stroke-width:3;fill:none;stroke-linecap:round;stroke-linejoin:round}.thin{stroke:#647067;stroke-width:2;fill:none;stroke-linecap:round;stroke-linejoin:round}.dash{stroke-dasharray:8 8}.zone{fill:#0f766e;opacity:.10}.risk{fill:#b45309;opacity:.13}.target{fill:#0f766e;opacity:.16}.txt{font-family:Arial,sans-serif;fill:#142420;font-weight:700}.small{font-size:20px}.mid{font-size:28px}.big{font-size:38px}.note{font-size:18px;fill:#50605a;font-weight:600}.label{fill:#fff;font-size:16px;font-weight:700}</style></defs><rect class="bg" width="960" height="540" rx="28"/><rect class="panel" x="42" y="42" width="876" height="456" rx="22"/><g opacity=".75"><path class="grid" d="M95 150H865M95 230H865M95 310H865M95 390H865M180 110V430M320 110V430M460 110V430M600 110V430M740 110V430"/></g><text class="txt big" x="72" y="94">Volume Meaning Changes by Location</text><path class="muted" d="M110 330L240 300L360 250L480 175L610 135L760 150L850 235"/><rect class="zone" x="115" y="270" width="145" height="95" rx="12"/><rect class="zone" x="420" y="140" width="150" height="90" rx="12"/><rect class="risk" x="705" y="110" width="130" height="90" rx="12"/><g fill="#0f766e"><rect x="150" y="390" width="25" height="55"/><rect x="465" y="370" width="25" height="85"/><rect x="735" y="335" width="25" height="120"/></g><text class="txt small" x="130" y="255">Base</text><text class="txt small" x="430" y="130">Breakout</text><text class="txt small" x="705" y="100">Late Stage</text></svg>
