<svg xmlns="http://www.w3.org/2000/svg" width="960" height="540" viewBox="0 0 960 540" role="img" aria-labelledby="title desc">
  <title id="title">Break of Structure 기본</title>
  <desc id="desc">상승 구조에서 이전 저점이 깨지는 구간을 BOS로 표시한 실제 차트형 이미지</desc>
  <rect width="960" height="540" fill="#f7f4ec"/><rect x="56" y="44" width="848" height="452" rx="22" fill="#fffefa" stroke="#d7d8cc"/>
  <text x="92" y="98" font-family="Arial, sans-serif" font-size="32" font-weight="800" fill="#132321">BOS는 구조의 기준이 깨지는 순간입니다</text>
  <g stroke="#e1ded3"><line x1="96" y1="160" x2="850" y2="160"/><line x1="96" y1="240" x2="850" y2="240"/><line x1="96" y1="320" x2="850" y2="320"/></g>
  <path d="M120 320 C180 270 230 244 282 260 C340 278 386 190 444 210 C492 226 532 260 578 248 C634 234 674 296 726 334 C774 368 812 388 844 410" fill="none" stroke="#132321" stroke-width="6"/>
  <line x1="240" y1="282" x2="760" y2="282" stroke="#b64a4a" stroke-width="5" stroke-dasharray="12 8"/>
  <text x="252" y="274" font-family="Arial, sans-serif" font-size="20" font-weight="800" fill="#9d3e3e">이전 HL 기준</text>
  <rect x="694" y="296" width="116" height="58" rx="10" fill="#fff3f3" stroke="#d08c8c"/>
  <text x="716" y="332" font-family="Arial, sans-serif" font-size="22" font-weight="800" fill="#9d3e3e">BOS</text>
  <g fill="#9da59f"><rect x="120" y="430" width="24" height="28"/><rect x="180" y="416" width="24" height="42"/><rect x="240" y="424" width="24" height="34"/><rect x="300" y="406" width="24" height="52"/><rect x="360" y="390" width="24" height="68"/><rect x="420" y="410" width="24" height="48"/><rect x="480" y="422" width="24" height="36"/><rect x="540" y="398" width="24" height="60"/><rect x="600" y="382" width="24" height="76"/><rect x="660" y="370" width="24" height="88"/><rect x="720" y="360" width="24" height="98"/><rect x="780" y="350" width="24" height="108"/></g>
</svg>
