<svg xmlns="http://www.w3.org/2000/svg" width="960" height="540" viewBox="0 0 960 540" role="img" aria-labelledby="title desc">
  <title id="title">고점과 저점 구조 기본</title>
  <desc id="desc">실제 차트처럼 캔들과 거래량을 배치하고 HH와 HL을 표시한 상승 구조 이미지</desc>
  <rect width="960" height="540" fill="#f7f4ec"/>
  <rect x="54" y="42" width="852" height="456" rx="22" fill="#fffefa" stroke="#d7d8cc"/>
  <text x="88" y="96" font-family="Arial, sans-serif" font-size="32" font-weight="800" fill="#132321">고점과 저점 구조는 추세의 뼈대입니다</text>
  <g stroke="#e1ded3" stroke-width="1">
    <line x1="90" y1="150" x2="850" y2="150"/><line x1="90" y1="220" x2="850" y2="220"/>
    <line x1="90" y1="290" x2="850" y2="290"/><line x1="90" y1="360" x2="850" y2="360"/>
  </g>
  <g>
    <path d="M115 330 C170 280 205 248 260 270 C320 296 350 212 410 230 C468 248 502 182 560 204 C618 226 660 166 720 184 C770 198 808 158 840 142" fill="none" stroke="#132321" stroke-width="5"/>
    <g fill="#146b5f" font-family="Arial, sans-serif" font-size="20" font-weight="800">
      <text x="242" y="252">HL</text><text x="392" y="212">HH</text><text x="548" y="188">HL</text><text x="704" y="168">HH</text>
    </g>
  </g>
  <g stroke-width="8" stroke-linecap="round">
    <line x1="120" y1="346" x2="120" y2="318" stroke="#1f7a6b"/><line x1="170" y1="306" x2="170" y2="278" stroke="#1f7a6b"/>
    <line x1="220" y1="282" x2="220" y2="250" stroke="#b64a4a"/><line x1="270" y1="290" x2="270" y2="262" stroke="#1f7a6b"/>
    <line x1="320" y1="274" x2="320" y2="238" stroke="#1f7a6b"/><line x1="370" y1="246" x2="370" y2="214" stroke="#1f7a6b"/>
    <line x1="420" y1="238" x2="420" y2="206" stroke="#b64a4a"/><line x1="470" y1="228" x2="470" y2="194" stroke="#1f7a6b"/>
    <line x1="520" y1="214" x2="520" y2="180" stroke="#1f7a6b"/><line x1="570" y1="216" x2="570" y2="190" stroke="#b64a4a"/>
    <line x1="620" y1="204" x2="620" y2="174" stroke="#1f7a6b"/><line x1="670" y1="190" x2="670" y2="158" stroke="#1f7a6b"/>
    <line x1="720" y1="186" x2="720" y2="152" stroke="#b64a4a"/><line x1="770" y1="176" x2="770" y2="144" stroke="#1f7a6b"/>
  </g>
  <g fill="#9da59f">
    <rect x="108" y="430" width="24" height="32"/><rect x="158" y="418" width="24" height="44"/><rect x="208" y="424" width="24" height="38"/>
    <rect x="258" y="404" width="24" height="58"/><rect x="308" y="410" width="24" height="52"/><rect x="358" y="390" width="24" height="72"/>
    <rect x="408" y="420" width="24" height="42"/><rect x="458" y="402" width="24" height="60"/><rect x="508" y="386" width="24" height="76"/>
    <rect x="558" y="416" width="24" height="46"/><rect x="608" y="394" width="24" height="68"/><rect x="658" y="382" width="24" height="80"/>
    <rect x="708" y="412" width="24" height="50"/><rect x="758" y="396" width="24" height="66"/>
  </g>
</svg>
