<svg xmlns="http://www.w3.org/2000/svg" width="960" height="540" viewBox="0 0 960 540" role="img" aria-labelledby="title desc">
  <title id="title">이동평균선 기본 구조</title>
  <desc id="desc">가격 캔들과 5일선, 20일선, 60일선이 함께 표시된 차트 공부 이미지</desc>
  <rect width="960" height="540" fill="#f7f4ec"/>
  <rect x="54" y="46" width="852" height="448" rx="22" fill="#fffefa" stroke="#d7d8cc"/>
  <text x="92" y="104" font-family="Arial, sans-serif" font-size="34" font-weight="800" fill="#132321">이동평균선은 가격의 평균 흐름입니다</text>
  <text x="92" y="143" font-family="Arial, sans-serif" font-size="20" fill="#5b6663">미래를 맞히는 선이 아니라, 현재 가격이 평균보다 강한지 약한지 보는 기준입니다.</text>
  <line x1="100" y1="400" x2="850" y2="400" stroke="#d7d8cc"/>
  <line x1="100" y1="320" x2="850" y2="320" stroke="#e7e3d9"/>
  <line x1="100" y1="240" x2="850" y2="240" stroke="#e7e3d9"/>
  <line x1="100" y1="160" x2="850" y2="160" stroke="#e7e3d9"/>
  <g stroke-width="10" stroke-linecap="round">
    <line x1="150" y1="340" x2="150" y2="296" stroke="#1f7a6b"/>
    <line x1="210" y1="315" x2="210" y2="270" stroke="#1f7a6b"/>
    <line x1="270" y1="292" x2="270" y2="255" stroke="#1f7a6b"/>
    <line x1="330" y1="306" x2="330" y2="263" stroke="#b64a4a"/>
    <line x1="390" y1="278" x2="390" y2="232" stroke="#1f7a6b"/>
    <line x1="450" y1="250" x2="450" y2="210" stroke="#1f7a6b"/>
    <line x1="510" y1="236" x2="510" y2="198" stroke="#1f7a6b"/>
    <line x1="570" y1="252" x2="570" y2="215" stroke="#b64a4a"/>
    <line x1="630" y1="228" x2="630" y2="190" stroke="#1f7a6b"/>
    <line x1="690" y1="210" x2="690" y2="174" stroke="#1f7a6b"/>
    <line x1="750" y1="198" x2="750" y2="158" stroke="#1f7a6b"/>
    <line x1="810" y1="184" x2="810" y2="145" stroke="#1f7a6b"/>
  </g>
  <path d="M130 320 C210 298 270 284 330 286 C410 278 460 236 525 222 C610 210 700 186 830 163" fill="none" stroke="#10806f" stroke-width="5"/>
  <path d="M130 348 C220 330 310 318 390 300 C480 280 570 252 660 228 C730 208 780 190 830 176" fill="none" stroke="#c98d2e" stroke-width="5"/>
  <path d="M130 372 C240 358 330 342 440 318 C550 294 650 260 740 226 C780 210 810 198 830 190" fill="none" stroke="#345995" stroke-width="5"/>
  <g font-family="Arial, sans-serif" font-size="18" font-weight="700">
    <rect x="642" y="72" width="188" height="102" rx="12" fill="#ffffff" stroke="#d7d8cc"/>
    <circle cx="668" cy="101" r="7" fill="#10806f"/><text x="686" y="108" fill="#132321">5일선: 짧은 흐름</text>
    <circle cx="668" cy="130" r="7" fill="#c98d2e"/><text x="686" y="137" fill="#132321">20일선: 기본 흐름</text>
    <circle cx="668" cy="159" r="7" fill="#345995"/><text x="686" y="166" fill="#132321">60일선: 큰 흐름</text>
  </g>
</svg>
