<svg xmlns="http://www.w3.org/2000/svg" width="960" height="540" viewBox="0 0 960 540" role="img" aria-labelledby="title desc">
  <title id="title">추세선 그리는 법</title>
  <desc id="desc">실제 차트처럼 저점 두 개 이상을 연결해 상승 추세선을 그린 이미지</desc>
  <rect width="960" height="540" fill="#f7f4ec"/>
  <rect x="56" y="42" width="848" height="456" rx="22" fill="#fffefa" stroke="#d7d8cc"/>
  <text x="92" y="96" font-family="Arial, sans-serif" font-size="32" font-weight="800" fill="#132321">추세선은 의미 있는 저점과 고점을 연결합니다</text>
  <g stroke="#e1ded3"><line x1="100" y1="160" x2="850" y2="160"/><line x1="100" y1="240" x2="850" y2="240"/><line x1="100" y1="320" x2="850" y2="320"/><line x1="100" y1="400" x2="850" y2="400"/></g>
  <path d="M120 360 C178 306 232 288 286 306 C344 326 392 242 454 260 C512 276 552 210 616 226 C680 244 730 178 838 150" fill="none" stroke="#132321" stroke-width="6"/>
  <line x1="130" y1="374" x2="820" y2="170" stroke="#146b5f" stroke-width="5"/>
  <g fill="#146b5f"><circle cx="286" cy="306" r="8"/><circle cx="454" cy="260" r="8"/><circle cx="616" cy="226" r="8"/></g>
  <text x="146" y="430" font-family="Arial, sans-serif" font-size="20" font-weight="800" fill="#146b5f">상승 추세선: 높아지는 저점들을 연결</text>
  <g fill="#9da59f"><rect x="120" y="438" width="24" height="26"/><rect x="180" y="424" width="24" height="40"/><rect x="240" y="430" width="24" height="34"/><rect x="300" y="412" width="24" height="52"/><rect x="360" y="402" width="24" height="62"/><rect x="420" y="414" width="24" height="50"/><rect x="480" y="390" width="24" height="74"/><rect x="540" y="408" width="24" height="56"/><rect x="600" y="386" width="24" height="78"/><rect x="660" y="400" width="24" height="64"/><rect x="720" y="374" width="24" height="90"/></g>
</svg>
